<?xml version="1.0" encoding="utf-8"?>
<!-- Generator: Adobe Illustrator 21.0.2, SVG Export Plug-In . SVG Version: 6.00 Build 0)  -->
<svg version="1.1" id="Layer_1" xmlns="http://www.w3.org/2000/svg" xmlns:xlink="http://www.w3.org/1999/xlink" x="0px" y="0px"
	 viewBox="0 0 69.2 47" style="enable-background:new 0 0 69.2 47;" xml:space="preserve">
<style type="text/css">
	.st0{clip-path:url(#SVGID_2_);fill:#000000;}
</style>
<g>
	<defs>
		<rect id="SVGID_1_" width="69.2" height="47"/>
	</defs>
	<clipPath id="SVGID_2_">
		<use xlink:href="#SVGID_1_"  style="overflow:visible;"/>
	</clipPath>
	<path class="st0" d="M33.6,27.2c0.5-8.5,7.3-15.3,15.8-15.8v-2c-0.6,0-1.1,0.1-1.7,0.2c-0.4,0.1-0.8-0.2-1-0.5
		c-0.2-0.4-0.1-0.8,0.2-1.1l6.6-6.6L52.1,0l-15,15c-3.2,3.2-5.2,7.5-5.5,12.3h2V27.2z"/>
	<path class="st0" d="M50.4,41c-7.1,0-12.9-5.8-12.9-12.9s5.8-12.9,12.9-12.9S63.3,21,63.3,28.1C63.3,35.3,57.5,41,50.4,41
		 M50.4,13.3c-8.2,0-14.8,6.6-14.8,14.8s6.6,14.8,14.8,14.8s14.8-6.6,14.8-14.8C65.2,20,58.6,13.3,50.4,13.3"/>
	<path class="st0" d="M67.2,27.2h2C68.7,17.6,61,9.9,51.4,9.4v2C59.9,11.9,66.7,18.7,67.2,27.2"/>
	<path class="st0" d="M33.6,29.2h-2c0.5,9.6,8.2,17.3,17.8,17.8v-2C40.9,44.5,34.1,37.7,33.6,29.2"/>
	<path class="st0" d="M51.4,45v2c9.6-0.5,17.3-8.2,17.8-17.8h-2C66.7,37.7,59.9,44.5,51.4,45"/>
	<path class="st0" d="M27.1,37.9c-2.2,1.9-5.2,3.1-8.4,3.1c-7.1,0-12.9-5.8-12.9-12.9s5.8-12.9,12.9-12.9c3.2,0,6.1,1.2,8.4,3.1
		l1.4-1.4c-2.6-2.3-6-3.7-9.8-3.7c-8.2,0-14.8,6.6-14.8,14.8s6.6,14.8,14.8,14.8c3.7,0,7.2-1.4,9.8-3.7L27.1,37.9z"/>
	<path class="st0" d="M29.9,40.7c-3,2.6-6.9,4.2-11.2,4.2c-9,0-16.3-7-16.8-15.8H0C0.5,39,8.7,46.9,18.8,46.9
		c4.8,0,9.2-1.8,12.6-4.8L29.9,40.7z"/>
	<path class="st0" d="M18.8,11.4c4.3,0,8.2,1.6,11.2,4.2l1.4-1.4c-3.3-3-7.7-4.8-12.6-4.8C8.7,9.4,0.5,17.3,0,27.2h2
		C2.5,18.4,9.8,11.4,18.8,11.4"/>
</g>
</svg>
