<svg id="Layer_1" data-name="Layer 1" xmlns="http://www.w3.org/2000/svg" width="157.75" height="128.26" viewBox="0 0 157.75 128.26"><title>Galileo</title><path d="M0,57.21c.79-3.39,1.49-6.8,2.4-10.15C9.6,20.49,33.65,1.11,61.21.24c15.27-.48,30.57-.09,46-.09-2.62,8.24-10.38,13.75-19.47,14-10.31.31-20.73-.27-30.92,1C31.43,18.37,13.37,41,14.69,66.93S36.13,113,62,113.95c8.43.3,14.7-3.67,18.86-10.9Q90.25,86.82,99.44,70.5c5.06-8.93,12.82-12.58,23.6-12-1.07,2-1.88,3.53-2.76,5.06C112,78,103.23,92.19,95.45,106.9c-10.15,19.2-26.21,24.26-45.75,19.9A63.47,63.47,0,0,1,1.05,75,35,35,0,0,0,0,71.21Z"/><path d="M157.75,58.53c-.73,1.54-1.2,2.74-1.83,3.85q-15.37,26.86-30.75,53.71c-5.18,9.09-12.89,13-23.71,11.9.62-1.36,1-2.56,1.66-3.63q15.63-27,31.3-54C139.53,61.56,147.22,57.86,157.75,58.53Z"/><path d="M68.85,93.11l-20-34.45c7.89-.81,14.48.85,19.33,6.29,3.48,3.9,7,8.52,8.23,13.39.71,2.91-3,6.94-4.85,10.43C70.95,89.94,70.16,91,68.85,93.11Z"/></svg>