<?xml version="1.0" encoding="utf-8"?>
<!-- Generator: Adobe Illustrator 21.0.2, SVG Export Plug-In . SVG Version: 6.00 Build 0)  -->
<svg version="1.1" id="Layer_1" xmlns="http://www.w3.org/2000/svg" xmlns:xlink="http://www.w3.org/1999/xlink" x="0px" y="0px"
	 viewBox="0 0 135.3 12.3" style="enable-background:new 0 0 135.3 12.3;" xml:space="preserve">
<style type="text/css">
	.st0{clip-path:url(#SVGID_2_);fill:#000000;}
	.st1{fill:#000000;}
	.st2{clip-path:url(#SVGID_4_);fill:#000000;}
</style>
<g>
	<defs>
		<rect id="SVGID_1_" y="0" width="135.3" height="12.3"/>
	</defs>
	<clipPath id="SVGID_2_">
		<use xlink:href="#SVGID_1_"  style="overflow:visible;"/>
	</clipPath>
	<path class="st0" d="M120.8,6.2c0-3.5-3-5.9-6.6-5.9h-6v11.8h6C117.9,12.1,120.8,9.7,120.8,6.2 M118.6,6.2c0,2.5-1.9,4-4.4,4h-3.8
		v-8h3.8C116.7,2.2,118.6,3.7,118.6,6.2"/>
	<path class="st0" d="M127.4,3.6c0-1,0.7-1.7,2.5-1.7c1.2,0,2.4,0.4,3.4,1l1.1-1.5c-1.3-0.9-2.9-1.4-4.5-1.4c-3,0-4.7,1.5-4.7,3.6
		c0,4.6,7.9,2.4,7.9,5.1c0,1.4-1.6,1.7-2.9,1.7c-1.6-0.1-3.1-0.6-4.4-1.6l-1.2,1.5c1.6,1.2,3.6,1.9,5.7,1.9c3,0,5.1-1.5,5.1-3.6
		C135.3,4.1,127.4,6.3,127.4,3.6"/>
</g>
<polygon class="st1" points="93.2,0.3 93.2,12.1 103.7,12.1 103.7,10.2 95.4,10.2 95.4,0.3 "/>
<polygon class="st1" points="77.8,0.3 77.8,12.1 87.8,12.1 87.8,10.2 80,10.2 80,6.9 86,6.9 86,5 80,5 80,2.2 87.6,2.2 87.6,0.3 "/>
<rect x="69.4" y="0.3" class="st1" width="2.2" height="11.8"/>
<polygon class="st1" points="55.2,0.3 55.2,12.1 57.4,12.1 57.4,7.3 63,7.3 63,5.4 57.4,5.4 57.4,2.2 64.5,2.2 64.5,0.3 "/>
<polygon class="st1" points="45.6,0.3 41.6,8.9 37.6,0.3 34.2,0.3 34.2,12.1 36.4,12.1 36.4,2.5 40.8,12.1 42.4,12.1 46.8,2.5
	46.8,12.1 49.1,12.1 49.1,0.3 "/>
<polygon class="st1" points="18.7,0.3 18.7,12.1 28.8,12.1 28.8,10.2 20.9,10.2 20.9,6.9 27,6.9 27,5 20.9,5 20.9,2.2 28.5,2.2
	28.5,0.3 "/>
<g>
	<defs>
		<rect id="SVGID_3_" y="0" width="135.3" height="12.3"/>
	</defs>
	<clipPath id="SVGID_4_">
		<use xlink:href="#SVGID_3_"  style="overflow:visible;"/>
	</clipPath>
	<path class="st2" d="M6.7,7.8h3.6v1.6c-1.1,0.7-2.4,1-3.6,1c-2.4,0.1-4.4-1.8-4.5-4.2c0,0,0-0.1,0-0.1c0-2.4,2-4.3,4.4-4.3
		c1.6,0,3.2,0.7,4.1,2.1l1.8-1.1C11.1,1,8.9-0.1,6.6,0C3,0,0,2.8,0,6.2c0,3.4,3,6.2,6.6,6.2c2.2,0,4.3-0.7,6-2.1V5.9H6.7V7.8z"/>
</g>
</svg>
