<?xml version="1.0" encoding="utf-8"?>
<!-- Generator: Adobe Illustrator 21.0.2, SVG Export Plug-In . SVG Version: 6.00 Build 0)  -->
<svg version="1.1" id="Layer_1" xmlns="http://www.w3.org/2000/svg" xmlns:xlink="http://www.w3.org/1999/xlink" x="0px" y="0px"
	 viewBox="0 0 137.6 41.4" style="enable-background:new 0 0 137.6 41.4;" xml:space="preserve">
<style type="text/css">
	.st0{clip-path:url(#SVGID_2_);fill:#000000;}
	.st1{fill:#000000;}
	.st2{clip-path:url(#SVGID_4_);fill:#000000;}
</style>
<g>
	<defs>
		<rect id="SVGID_1_" width="137.6" height="41.4"/>
	</defs>
	<clipPath id="SVGID_2_">
		<use xlink:href="#SVGID_1_"  style="overflow:visible;"/>
	</clipPath>
	<path class="st0" d="M25.3,19.4c-10.9-2.5-21.9,4.1-24.7,15c0,0.2-0.1,0.3-0.1,0.5c-0.1,0.6-0.2,1.2-0.3,1.8
		c-0.4,2.6-0.4,3.3,1.5,4c1.5,0.5,3,0.7,4.6,0.7c2.5,0,7.5-0.3,11.4-2.8c4.3-2.8,7.5-8.2,8.7-12.9c-1.5-0.4-3-0.4-4.5-0.1
		c-1.4,7.5-7.5,13.2-15,14.1c-0.1-1.1-0.1-2.2,0.1-3.3c0-0.3,0.1-0.6,0.2-0.8c2-8.8,10.8-14.3,19.6-12.2c0,0,0.1,0,0.1,0
		C35,25.4,40.4,33,39.5,41.3h1.8C42.1,31.1,35.3,21.8,25.3,19.4"/>
	<path class="st0" d="M1.6,5.2V0.1c3.2,0,6.3-0.3,9.4,0.5c8.3,2,14.6,8.9,15.8,17.4c-1.8-0.6-3.7-0.9-5.6-1c-0.5-1.6-1.3-3-2.2-4.4
		c-2.6-3.8-6.6-6.4-11.1-7.2C5.8,5.1,3.7,5,1.6,5.2 M6.3,13.4H8v3.4c-2.3,1.1-4.5,2.6-6.3,4.4H1.6v-7.8H6.3z"/>
	<path class="st0" d="M125.4,35.7c0-0.5-0.1-1-0.3-1.5c-0.2-0.5-0.5-0.9-0.8-1.2c-0.3-0.4-0.7-0.7-1.2-0.8c-0.4-0.2-0.9-0.3-1.4-0.3
		c-0.5,0-1,0.1-1.4,0.3c-0.4,0.2-0.9,0.5-1.2,0.8c-0.3,0.4-0.6,0.8-0.8,1.2c-0.4,1-0.4,2,0,3c0.2,0.5,0.5,0.9,0.8,1.2
		c0.4,0.3,0.8,0.6,1.2,0.8c0.4,0.2,0.9,0.3,1.4,0.3c0.5,0,1-0.1,1.4-0.3c0.4-0.2,0.8-0.5,1.2-0.8c0.3-0.4,0.6-0.8,0.8-1.2
		C125.3,36.8,125.4,36.3,125.4,35.7 M128.5,40.9V30.3l6.5,6.2c0.2,0.2,0.4,0.4,0.5,0.6c0.2,0.2,0.4,0.4,0.6,0.7v-7.1h1.5v10.6
		l-6.6-6.4c-0.1-0.2-0.3-0.4-0.5-0.5c-0.2-0.2-0.3-0.4-0.5-0.6v7.1H128.5z M67.5,30.6h1.6v6c-0.1,0.7,0.1,1.4,0.6,2
		c0.5,0.5,1.2,0.8,1.9,0.7c0.7,0,1.4-0.2,1.9-0.7c0.4-0.6,0.6-1.3,0.6-2v-6h1.6v6.2c0.1,1.1-0.3,2.2-1,3c-0.9,0.7-2,1.1-3.1,1
		c-1.1,0.1-2.2-0.3-3.1-1c-0.7-0.8-1.1-1.9-1-3V30.6z M48.5,40.8v-6.3h5.7V36h-4v4.8H48.5z M48.5,30.6h5.7V32h-5.7V30.6z M64.3,35.7
		c0-0.5-0.1-1-0.3-1.5c-0.2-0.5-0.5-0.9-0.8-1.2c-0.3-0.4-0.7-0.7-1.2-0.8c-0.4-0.2-0.9-0.3-1.4-0.3c-0.5,0-1,0.1-1.4,0.3
		c-0.4,0.2-0.9,0.5-1.2,0.8c-0.3,0.4-0.6,0.8-0.8,1.2c-0.4,1-0.4,2,0,3c0.2,0.5,0.5,0.9,0.8,1.2c0.4,0.3,0.8,0.6,1.2,0.8
		c0.9,0.4,1.9,0.4,2.8,0c0.4-0.2,0.8-0.5,1.2-0.8c0.3-0.4,0.6-0.8,0.8-1.2C64.2,36.8,64.3,36.3,64.3,35.7 M66.1,35.7
		c0,0.7-0.1,1.4-0.4,2.1c-0.3,0.6-0.7,1.2-1.2,1.7c-0.5,0.5-1.1,0.9-1.8,1.2c-1.3,0.5-2.8,0.5-4.2,0c-0.7-0.3-1.3-0.7-1.8-1.2
		c-0.5-0.5-0.9-1.1-1.2-1.7c-0.3-0.7-0.4-1.4-0.4-2.1c0-0.7,0.1-1.4,0.4-2.1c0.3-0.6,0.7-1.2,1.2-1.7c0.5-0.5,1.1-0.9,1.8-1.2
		c1.3-0.5,2.8-0.5,4.2,0c0.7,0.3,1.3,0.7,1.8,1.2c0.5,0.5,0.9,1.1,1.2,1.7C65.9,34.3,66,35,66.1,35.7 M77.4,40.8V30.2l6.5,6.2
		c0.2,0.2,0.4,0.4,0.5,0.6c0.2,0.2,0.4,0.4,0.6,0.7v-7.1h1.5v10.6l-6.6-6.3c-0.1-0.2-0.3-0.4-0.5-0.5c-0.2-0.2-0.3-0.4-0.5-0.6v7.1
		L77.4,40.8L77.4,40.8z M89.9,39.3h1.4c0.6,0,1.1-0.1,1.7-0.2c0.4-0.1,0.7-0.3,1-0.5c0.4-0.3,0.7-0.7,0.9-1.2c0.4-1.1,0.4-2.3,0-3.4
		c-0.2-0.5-0.5-0.9-0.9-1.2c-0.3-0.2-0.6-0.4-1-0.5c-0.4-0.1-1-0.1-1.9-0.2h-1.2V39.3z M88.2,40.8V30.6h2.2c1,0,2.1,0.1,3.1,0.2
		c0.6,0.1,1.1,0.4,1.6,0.7c0.6,0.4,1,1,1.3,1.7c0.7,1.5,0.7,3.3,0,4.8c-0.3,0.7-0.7,1.2-1.3,1.7c-0.4,0.3-1,0.6-1.5,0.7
		c-0.9,0.1-1.8,0.2-2.7,0.2h-0.4L88.2,40.8z M102.9,37l-2.2-4.9l0.8-1.7l4.9,10.6h-1.8l-1.2-2.6h-4L98.2,41h-1.7l1.9-4H102.9z
		 M109.4,32v8.8h-1.7V32H105v-1.4h7.1V32H109.4z M113,40.8V30.6h1.7v10.2H113z M127.1,35.7c0,0.7-0.1,1.4-0.4,2.1
		c-0.3,0.6-0.7,1.2-1.2,1.7c-0.5,0.5-1.1,0.9-1.8,1.2c-1.3,0.5-2.8,0.5-4.2,0c-0.7-0.3-1.3-0.7-1.8-1.2c-0.5-0.5-0.9-1.1-1.2-1.7
		c-0.3-0.7-0.4-1.4-0.4-2.1c0-0.7,0.1-1.4,0.4-2.1c0.3-0.6,0.7-1.2,1.2-1.7c0.5-0.5,1.1-0.9,1.8-1.2c1.3-0.5,2.8-0.5,4.2,0
		c0.7,0.3,1.3,0.7,1.8,1.2c0.5,0.5,0.9,1.1,1.2,1.7C126.9,34.3,127.1,35,127.1,35.7"/>
	<path class="st0" d="M48.5,11V0.7l6.3,6.1c0.1,0.2,0.3,0.4,0.5,0.5c0.2,0.2,0.4,0.4,0.6,0.7V1.1h1.5v10.3l-6.5-6.2l-0.5-0.5
		c-0.2-0.2-0.3-0.4-0.5-0.6V11H48.5z"/>
	<path class="st0" d="M68,5.9c0-0.5-0.1-1-0.3-1.5c-0.2-0.5-0.5-0.9-0.8-1.3c-0.3-0.4-0.7-0.7-1.2-0.8C65.2,2.1,64.8,2,64.3,2
		c-0.5,0-1,0.1-1.4,0.3c-0.4,0.2-0.9,0.5-1.2,0.8c-0.3,0.4-0.6,0.8-0.8,1.2c-0.4,1-0.4,2,0,3c0.2,0.5,0.5,0.9,0.8,1.2
		c0.2,0.5,0.6,0.8,1.1,1c0.5,0.2,1,0.3,1.5,0.3c0.5,0,1-0.1,1.4-0.3c0.4-0.2,0.9-0.5,1.2-0.9c0.3-0.4,0.6-0.8,0.8-1.2
		C67.9,6.9,68,6.4,68,5.9 M69.8,5.9c0,0.7-0.1,1.4-0.4,2.1c-0.3,0.6-0.7,1.2-1.2,1.7c-0.5,0.5-1.1,0.9-1.8,1.2
		c-0.7,0.3-1.4,0.4-2.1,0.4c-0.7,0-1.4-0.1-2.1-0.4c-0.7-0.3-1.3-0.7-1.8-1.2c-0.5-0.5-0.9-1.1-1.2-1.7c-0.3-0.7-0.4-1.4-0.4-2.1
		c0-0.7,0.1-1.4,0.4-2.1c0.3-0.7,0.7-1.3,1.2-1.8c0.5-0.5,1.1-0.9,1.8-1.2c1.3-0.5,2.8-0.5,4.2,0c1.4,0.6,2.4,1.6,3,3
		C69.6,4.4,69.7,5.1,69.8,5.9"/>
	<path class="st0" d="M74.2,11.4L69.6,0.7h1.7l2.3,5.5l0.3,0.9c0.1,0.3,0.2,0.5,0.2,0.8c0.1-0.3,0.1-0.5,0.2-0.8l0.3-0.9l2.3-5.5
		h1.7L74.2,11.4z"/>
	<path class="st0" d="M83.5,7c-0.8-1.9-1.5-3.4-2.2-5.1L82,0.3l5,10.7h-1.8L84,8.3h-4.1l-1.1,2.7H77l2-4H83.5z"/>
</g>
<polygon class="st1" points="88.3,11 88.3,0.7 89.9,0.7 89.9,5 93.6,0.7 95.7,0.7 91.6,5.2 96.2,11 94,11 89.9,5.7 89.9,11 "/>
<g>
	<defs>
		<rect id="SVGID_3_" width="137.6" height="41.4"/>
	</defs>
	<clipPath id="SVGID_4_">
		<use xlink:href="#SVGID_3_"  style="overflow:visible;"/>
	</clipPath>
	<path class="st2" d="M116.3,16.8c-0.7,0.1-1.4,0.5-1.9,1c-0.7,0.8-1.1,1.8-1.1,2.9c-0.1,1,0.3,2,1,2.8c0.7,0.7,1.6,1.1,2.6,1.1
		c0.6,0,1.2-0.1,1.8-0.3c0.6-0.2,1.2-0.5,1.6-1v1.9c-0.5,0.3-1,0.5-1.5,0.7c-0.6,0.2-1.2,0.2-1.8,0.2c-0.8,0-1.5-0.1-2.2-0.4
		c-0.7-0.2-1.3-0.7-1.8-1.2c-0.5-0.5-0.9-1.1-1.2-1.8c-0.3-0.7-0.4-1.4-0.4-2.2c0-0.8,0.1-1.5,0.4-2.2c0.6-1.4,1.6-2.4,3-3
		c0.6-0.2,1.2-0.4,1.9-0.4L116.3,16.8z M120.4,18c-0.5-0.4-1-0.7-1.5-0.9c-0.2-0.1-0.3-0.1-0.5-0.2l0.4-1.5h0.1
		c0.6,0.2,1.1,0.4,1.6,0.8L120.4,18z M107.9,15.5h1.7v10.4h-1.7V15.5z M102.1,26.3l-4.7-10.9h1.8l2.3,5.6c0.1,0.3,0.2,0.6,0.3,0.9
		c0.1,0.3,0.2,0.5,0.2,0.8c0.1-0.3,0.1-0.5,0.2-0.8l0.3-0.9l2.3-5.6h1.8L102.1,26.3z M97.1,20.7c0,0.7-0.1,1.4-0.4,2.1
		c-0.6,1.4-1.6,2.4-3,3c-0.7,0.3-1.4,0.4-2.1,0.4c-0.8,0-1.5-0.1-2.2-0.4c-1.4-0.6-2.4-1.6-3-3c-0.3-0.7-0.4-1.4-0.4-2.1
		c0-0.7,0.1-1.4,0.4-2.1c0.6-1.4,1.6-2.4,3-3c0.7-0.3,1.4-0.4,2.2-0.4c0.7,0,1.4,0.1,2.1,0.4c1.4,0.6,2.4,1.6,3,3
		C96.9,19.3,97,20,97.1,20.7 M95.3,20.7c0-0.5-0.1-1-0.3-1.5c-0.2-0.5-0.5-0.9-0.8-1.3c-0.3-0.3-0.8-0.6-1.2-0.8c-1-0.4-2-0.4-3,0
		c-0.5,0.2-0.9,0.5-1.2,0.9c-0.4,0.4-0.6,0.8-0.8,1.3c-0.4,1-0.4,2,0,3c0.2,0.5,0.5,0.9,0.8,1.3c0.3,0.4,0.8,0.7,1.2,0.9
		c1,0.4,2,0.4,3,0c0.5-0.2,0.9-0.5,1.2-0.9c0.4-0.4,0.6-0.8,0.8-1.3C95.2,21.8,95.3,21.3,95.3,20.7 M77.8,25.9V15.5h1.7v4.3l3.8-4.3
		h2.1l-4.1,4.7l4.6,5.8h-2.2l-4.1-5.3v5.2H77.8z M75.8,20.7c0,0.7-0.1,1.4-0.4,2.1c-0.6,1.4-1.6,2.4-3,3c-0.7,0.3-1.4,0.4-2.1,0.4
		c-0.8,0-1.5-0.1-2.2-0.4c-1.4-0.6-2.4-1.6-3-3c-0.3-0.7-0.4-1.4-0.4-2.1c0-0.7,0.1-1.4,0.4-2.1c0.6-1.4,1.6-2.4,3-3
		c0.7-0.3,1.4-0.4,2.2-0.4c0.7,0,1.4,0.1,2.1,0.4c1.4,0.6,2.4,1.6,3,3C75.7,19.3,75.8,20,75.8,20.7 M74.1,20.7c0-0.5-0.1-1-0.3-1.5
		c-0.2-0.5-0.5-0.9-0.8-1.3c-0.3-0.3-0.8-0.6-1.2-0.8c-1-0.4-2-0.4-3,0c-0.5,0.2-0.9,0.5-1.2,0.9c-0.4,0.4-0.6,0.8-0.8,1.3
		c-0.4,1-0.4,2,0,3c0.2,0.5,0.5,0.9,0.8,1.3c0.3,0.4,0.8,0.7,1.2,0.9c1,0.4,2,0.4,3,0c0.5-0.2,0.9-0.5,1.2-0.9
		c0.4-0.4,0.6-0.8,0.8-1.3C74,21.8,74.1,21.3,74.1,20.7 M59.3,24c0.1,0.2,0.3,0.4,0.5,0.5c0.2,0.1,0.3,0.1,0.5,0.1
		c0.3,0,0.5-0.1,0.7-0.3c0.2-0.4,0.2-0.8,0.2-1.2v-7.6h1.7v8.2c0,0.7-0.2,1.4-0.6,2c-0.5,0.4-1.1,0.7-1.8,0.6
		c-0.4,0-0.8-0.1-1.2-0.3c-0.4-0.2-0.7-0.5-1-0.8L59.3,24z M50.2,24.4h1.4c0.6,0,1.2-0.1,1.8-0.2c0.4-0.1,0.7-0.3,1-0.5
		c0.4-0.3,0.7-0.8,0.9-1.3c0.2-0.6,0.3-1.2,0.3-1.8c0-0.6-0.1-1.2-0.3-1.8c-0.2-0.5-0.5-0.9-0.9-1.3c-0.3-0.2-0.7-0.4-1.1-0.5
		c-0.6-0.1-1.3-0.2-1.9-0.2h-1.2v3.1h-1.7v-4.4h2.3c1,0,2.1,0.1,3.1,0.2c0.6,0.2,1.1,0.4,1.6,0.8c0.6,0.5,1.1,1.1,1.4,1.8
		c0.3,0.8,0.5,1.6,0.5,2.5c0,0.9-0.2,1.7-0.5,2.5c-0.3,0.7-0.8,1.3-1.4,1.8c-0.5,0.4-1,0.6-1.6,0.8c-0.9,0.1-1.8,0.2-2.7,0.2h-2.7
		v-4.4h1.7V24.4z"/>
</g>
</svg>
