<?xml version="1.0" encoding="utf-8"?>
<!-- Generator: Adobe Illustrator 21.0.2, SVG Export Plug-In . SVG Version: 6.00 Build 0)  -->
<svg version="1.1" id="Layer_1" xmlns="http://www.w3.org/2000/svg" xmlns:xlink="http://www.w3.org/1999/xlink" x="0px" y="0px"
	 viewBox="0 0 97.4 83.3" style="enable-background:new 0 0 97.4 83.3;" xml:space="preserve">
<style type="text/css">
	.st0{fill:#000000;}
</style>
<g>
	<path class="st0" d="M94.1,8.6V12h-6.5v6.5h-3.5V12h-6.5V8.6h6.5V2.1h3.5v6.5H94.1z"/>
</g>
<g>
	<path class="st0" d="M72.3,49.9v-7.2h6.4v-3c0-3.5,1.1-6.3,3.2-8.5c2.2-2.2,5.4-3.3,9.8-3.3c1,0,1.9,0,2.9,0.1
		c1,0.1,1.9,0.1,2.8,0.2v8C96.2,36,94.9,36,93.5,36c-1.5,0-2.5,0.3-3.1,1c-0.6,0.7-0.9,1.8-0.9,3.4v2.3h7.4v7.2h-7.4v31.8H78.7V49.9
		H72.3z"/>
</g>
<g>
	<path class="st0" d="M18.4,61.9c1,1.9,2.2,3.4,3.8,4.5c1.6,1.2,3.5,2,5.6,2.6c2.2,0.6,4.4,0.8,6.7,0.8c1.6,0,3.2-0.1,5-0.4
		c1.8-0.3,3.5-0.8,5-1.5c1.6-0.7,2.9-1.8,3.9-3.1c1-1.3,1.6-3,1.6-5c0-2.2-0.7-3.9-2.1-5.2c-1.4-1.3-3.2-2.5-5.4-3.3
		c-2.2-0.9-4.8-1.7-7.6-2.3c-2.8-0.7-5.7-1.4-8.6-2.2c-3-0.7-5.9-1.7-8.7-2.7c-2.8-1.1-5.4-2.5-7.6-4.2c-2.2-1.7-4-3.8-5.4-6.4
		c-1.4-2.6-2.1-5.7-2.1-9.3c0-4.1,0.9-7.6,2.6-10.6c1.7-3,4-5.5,6.9-7.5c2.8-2,6-3.5,9.6-4.5c3.6-1,7.1-1.4,10.7-1.4
		c4.2,0,8.2,0.5,12,1.4c3.8,0.9,7.2,2.4,10.2,4.5c3,2.1,5.3,4.7,7.1,8c1.7,3.2,2.6,7.2,2.6,11.8H47.4c-0.1-2.4-0.7-4.3-1.5-5.9
		c-0.9-1.6-2-2.8-3.4-3.7c-1.4-0.9-3-1.5-4.8-1.9c-1.8-0.4-3.8-0.6-6-0.6c-1.4,0-2.8,0.1-4.2,0.4c-1.4,0.3-2.7,0.8-3.8,1.6
		c-1.2,0.7-2.1,1.7-2.8,2.8c-0.7,1.1-1.1,2.5-1.1,4.2c0,1.6,0.3,2.8,0.9,3.8c0.6,1,1.8,1.9,3.5,2.7c1.7,0.8,4.2,1.6,7.2,2.5
		c3.1,0.8,7.1,1.9,12.1,3.1c1.5,0.3,3.5,0.8,6.2,1.6c2.6,0.8,5.3,2,7.9,3.7c2.6,1.7,4.8,4,6.7,6.9c1.9,2.9,2.8,6.5,2.8,11
		c0,3.6-0.7,7-2.1,10.1c-1.4,3.1-3.5,5.8-6.3,8.1c-2.8,2.3-6.2,4-10.4,5.3s-8.9,1.9-14.3,1.9c-4.4,0-8.6-0.5-12.8-1.6
		c-4.1-1.1-7.8-2.8-10.9-5.1c-3.2-2.3-5.7-5.2-7.5-8.8C0.8,64.2-0.1,60,0,55.1h16.9C16.9,57.7,17.4,60,18.4,61.9z"/>
</g>
</svg>
