<?xml version="1.0" encoding="utf-8"?>
<!-- Generator: Adobe Illustrator 21.0.2, SVG Export Plug-In . SVG Version: 6.00 Build 0)  -->
<svg version="1.1" id="Layer_1" xmlns="http://www.w3.org/2000/svg" xmlns:xlink="http://www.w3.org/1999/xlink" x="0px" y="0px"
	 viewBox="0 0 144.3 31.3" style="enable-background:new 0 0 144.3 31.3;" xml:space="preserve">
<style type="text/css">
	.st0{clip-path:url(#SVGID_2_);fill:#000000;}
</style>
<g>
	<defs>
		<rect id="SVGID_1_" width="144.3" height="31.3"/>
	</defs>
	<clipPath id="SVGID_2_">
		<use xlink:href="#SVGID_1_"  style="overflow:visible;"/>
	</clipPath>
	<path class="st0" d="M94.7,0c-1.1,0-2.3,0.6-2.3,2c0,0.9,0.6,1.5,1.6,2c1.1,0.5,1.9,0.7,1.9,1.8c0,0.5-0.3,1.5-1.5,1.5
		c-1.2,0-1.8-1-2-1.8l0,1.7c0.4,0.2,1.1,0.6,2.1,0.6c1.2,0,2.4-0.9,2.4-2.3c0-1.5-1-1.8-2.1-2.4c-1.1-0.5-1.5-0.8-1.5-1.5
		c0-0.5,0.3-1.2,1.2-1.2c1,0,1.7,0.9,1.8,1.4l-0.1-1.5C95.8,0.1,95.1,0,94.7,0"/>
	<path class="st0" d="M56.5,0.1c0.2,0.1,0.3,0.3,0.3,0.5v4.7c0,1.9,1.6,2.5,2.9,2.5c1.4,0,2.6-0.7,2.6-2.5l0-4.6
		c0-0.3,0.1-0.4,0.3-0.5h-1.2c0.2,0.1,0.3,0.3,0.3,0.5l0,4.7c0,1-0.5,1.9-2,1.9c-1.6,0-1.8-1.2-1.8-1.9V0.6c0-0.3,0.2-0.4,0.4-0.5
		H56.5z"/>
	<path class="st0" d="M63.3,0.1c0.3,0.1,0.4,0.3,0.5,0.4c0.1,0.2,0.1,0.2,0.1,0.5v6.1c0,0.2-0.1,0.4-0.3,0.5h1.2
		c-0.2-0.1-0.3-0.3-0.3-0.5V1.3c0,0.1,5.3,6.5,5.3,6.5V0.6c0-0.3,0.1-0.4,0.3-0.5H69c0.2,0.1,0.3,0.3,0.3,0.5v4.9l-4.4-5.4H63.3z"/>
	<path class="st0" d="M71.2,0.1c0.2,0.1,0.3,0.3,0.3,0.5v6.5c0,0.2-0.1,0.4-0.3,0.5h1.6c-0.2-0.1-0.3-0.3-0.3-0.5V0.6
		c0-0.3,0.1-0.4,0.3-0.5H71.2z"/>
	<path class="st0" d="M73.4,0.1c0.4,0.1,0.5,0.3,0.6,0.5c0.2,0.4,3,7.3,3,7.3s2.6-6.9,2.8-7.3c0.1-0.3,0.1-0.3,0.4-0.5H79
		c0.3,0.1,0.3,0.3,0.2,0.5c0,0-2,5.3-2,5.3s-2-5.1-2-5.1c-0.1-0.3-0.1-0.6,0.2-0.7H73.4z"/>
	<path class="st0" d="M80.7,0.1C80.9,0.2,81,0.4,81,0.6v6.5c0,0.3-0.1,0.4-0.3,0.5h4.5l0.2-1.2c-0.4,0.7-0.8,0.7-2,0.7
		c-0.5,0-1,0-1.3-0.1V3.8h1.8c0.2,0,0.3,0.2,0.4,0.3V2.9C84.2,3,84,3.2,83.8,3.2H82V0.7c0,0,1.7,0,1.9,0c0.5,0,0.7,0.1,0.9,0.4l0-1
		H80.7z"/>
	<path class="st0" d="M97.7,0.1C97.8,0.2,98,0.4,98,0.6v6.5c0,0.2-0.1,0.4-0.3,0.5h1.6C99.1,7.5,99,7.4,99,7.1V0.6
		c0-0.3,0.1-0.4,0.3-0.5H97.7z"/>
	<path class="st0" d="M99.9,0.1v1c0.1-0.2,0.3-0.4,0.6-0.4c0,0,1-0.1,1.8-0.1v6.5c0,0.2-0.1,0.4-0.3,0.5h1.6
		c-0.2-0.1-0.3-0.3-0.3-0.5V0.6c0.8,0,1.8,0.1,1.8,0.1c0.3,0,0.5,0.3,0.6,0.4l0-1H99.9z"/>
	<path class="st0" d="M106,0.1c0.3,0.2,0.4,0.3,0.6,0.5l2.1,3.5v3c0,0.3-0.2,0.4-0.4,0.5h1.9c-0.2-0.1-0.4-0.3-0.4-0.5V4.1l1.8-3.4
		c0.1-0.3,0.3-0.5,0.7-0.6h-1.5c0.3,0.1,0.4,0.2,0.2,0.5l-1.5,2.9L108,0.8c-0.3-0.5-0.1-0.6,0.2-0.7H106z"/>
	<path class="st0" d="M123.4,0.1c0.2,0.1,0.3,0.3,0.3,0.5v6.5c0,0.3-0.1,0.4-0.3,0.5h1.7c-0.2-0.1-0.3-0.2-0.3-0.5l0-3.4h1.8
		c0.2,0,0.3,0.2,0.4,0.3V2.9c-0.1,0.1-0.2,0.3-0.4,0.3h-1.8l0-2.5c0,0,1.9,0,2.1,0c0.5,0,0.8,0.2,0.9,0.4v-1H123.4z"/>
	<path class="st0" d="M119.2,7.2c-1.2,0-2.4-1.1-2.4-3.5c0-2,0.9-3.2,2.3-3.2c1.4,0,2.3,1.4,2.3,3.5C121.5,6,120.6,7.2,119.2,7.2
		 M119.3,0c-2.3-0.1-3.6,2-3.6,3.8c0,2.3,1.6,3.9,3.5,4c1.6,0.1,3.5-1.3,3.6-3.8C122.7,1.4,120.9,0,119.3,0"/>
	<path class="st0" d="M87.9,3.6c-0.3,0-0.7,0-0.7,0v-3c0,0,0.3,0,0.8,0c1.2,0,1.5,0.9,1.5,1.4C89.6,3.2,88.8,3.6,87.9,3.6 M91.7,7.2
		C91.2,6.7,90,4.7,90,4.7c-0.2-0.2-0.5-0.7-1.1-0.8c0.7-0.1,1.8-0.7,1.8-1.9c0-0.7-0.5-1.9-2.7-1.9h-2.1c0.2,0.1,0.3,0.3,0.3,0.5
		v6.5c0,0.2-0.1,0.4-0.3,0.5h1.7c-0.2-0.1-0.3-0.3-0.3-0.5v-3h0.7c0.6,0,0.8,0.5,1.1,0.9c0.4,0.6,0.8,1.2,1.4,2.1
		c0.2,0.2,0.5,0.5,0.9,0.5l1.1,0C92.4,7.6,91.9,7.5,91.7,7.2"/>
	<path class="st0" d="M6.1,4.8c-1.5,0-2.9,0.4-4.1,1.3C0.7,7,0.1,8.3,0.1,9.9c0,1.2,0.3,2.1,1,2.9c0.7,0.8,1.7,1.6,3.2,2.3
		c2,1,3.3,1.7,4,2.2c0.6,0.5,0.9,1.3,0.9,2.5c0,0.9-0.3,1.8-0.9,2.6c-0.6,0.8-1.6,1.2-3,1.2c-1.4,0-2.5-0.5-3.4-1.4
		C1,21.5,0.4,20.3,0,19l0.1,4.3c1,0.5,1.9,0.9,2.6,1.2C3.5,24.8,4.4,25,5.5,25c1.6,0,3.1-0.5,4.4-1.7c1.3-1.1,2-2.5,2-4.2
		c0-1.2-0.2-2.2-0.7-2.9c-0.5-0.7-1.1-1.3-1.7-1.7c-0.7-0.4-1.7-0.9-3-1.6c-1.6-0.8-2.6-1.4-3.1-1.9c-0.5-0.5-0.8-1.1-0.8-2
		c0-0.7,0.3-1.4,0.8-2.1c0.5-0.6,1.3-1,2.4-1C6.9,6,8,6.4,8.8,7.2c0.8,0.8,1.3,1.7,1.6,2.5l-0.1-3.8C9.1,5.2,7.7,4.8,6.1,4.8"/>
	<path class="st0" d="M52.1,4.8l-3.5,0.7c0.3,0.1,0.6,0.3,0.8,0.4c0.2,0.1,0.3,0.4,0.3,0.8v17c0,0.5-0.2,0.8-0.7,1.1h4.1
		c-0.3-0.2-0.5-0.3-0.6-0.5c-0.1-0.2-0.2-0.4-0.2-0.6v-9.4c0.3-0.4,0.7-0.7,1.3-1c0.6-0.3,1.2-0.5,1.8-0.5c1.1,0,1.9,0.3,2.4,0.9
		c0.5,0.6,0.7,1.4,0.7,2.4v7.6c0,0.4-0.3,0.8-0.8,1.1h4c-0.3-0.2-0.5-0.3-0.6-0.5s-0.2-0.3-0.2-0.6v-8.5c0-1.3-0.4-2.3-1.2-3
		c-0.8-0.7-1.9-1.1-3.1-1.1c-1.3,0-2.8,0.7-4.4,2.1V4.8z"/>
	<path class="st0" d="M43.3,8.7l-3.8,3.9h1.2v8.2c0,1.3,0.4,2.3,1.1,3.1c0.7,0.7,1.7,1.1,2.9,1.1c0.8,0,1.4-0.2,2-0.7
		c0.6-0.5,0.9-0.9,0.9-1.3c-0.3,0.3-0.6,0.5-0.8,0.6c-0.2,0.1-0.6,0.2-1.1,0.2c-1.8,0-2.6-1-2.6-3v-8.1h3l1-1.2h-4V8.7z"/>
	<path class="st0" d="M114,8.7l-3.8,3.9h1.2v8.2c0,1.3,0.4,2.3,1.1,3.1c0.7,0.7,1.7,1.1,2.9,1.1c0.8,0,1.4-0.2,2-0.7
		c0.6-0.5,0.9-0.9,0.9-1.3c-0.3,0.3-0.6,0.5-0.8,0.6c-0.2,0.1-0.6,0.2-1.1,0.2c-1.8,0-2.6-1-2.6-3v-8.1h3l1-1.2h-4V8.7z"/>
	<path class="st0" d="M29.6,11.1l-3.5,0.7c0.7,0.2,1,0.6,1,1.2v6.6c0,1.9,0.5,3.3,1.4,4.1c0.9,0.9,1.9,1.3,3,1.3
		c1.2,0,2.4-0.4,3.4-1.2l0.5-1.7c-0.4,0.4-0.8,0.6-1.2,0.9c-0.5,0.2-1,0.4-1.6,0.4c-0.8,0-1.6-0.3-2.1-1c-0.6-0.7-0.9-1.6-0.9-2.7
		V11.1z"/>
	<path class="st0" d="M38.1,11.1l-3.5,0.7c0.3,0.1,0.6,0.2,0.7,0.4c0.2,0.2,0.3,0.4,0.3,0.8v8.8l0,1.2c0,0,0,0,0,0
		c0,0.6,0.1,1,0.2,1.3c0.2,0.3,0.4,0.5,0.8,0.8l2.5-0.9c-0.8-0.1-1.1-0.7-1.1-1.6V11.1z"/>
	<path class="st0" d="M68.5,11.1c-1.6,0-3.1,0.5-4.6,1.4l0.1,3.6c0.4-1.2,0.9-2.2,1.6-2.9c0.6-0.7,1.5-1,2.6-1
		c0.8,0,1.5,0.2,1.9,0.7c0.4,0.5,0.6,1.1,0.6,1.8c0,0.7,0,1.1-0.1,1.2c-0.3,0.3-0.6,0.5-1.1,0.7c-0.5,0.2-1.3,0.4-2.4,0.7
		c-1.1,0.3-1.9,0.6-2.3,0.9c-1.3,0.8-1.9,1.9-1.9,3.3c0,0.8,0.3,1.6,0.9,2.3c0.6,0.8,1.5,1.2,2.6,1.2c1.3,0,2.6-0.4,3.7-1.4l0.5-1.5
		c-0.9,0.8-1.9,1.3-3,1.3c-0.7,0-1.2-0.2-1.6-0.6c-0.4-0.4-0.6-1-0.6-1.8c0-0.7,0.2-1.2,0.6-1.6c0.4-0.4,1-0.8,1.8-1.1
		c1.7-0.5,2.7-0.9,3.1-1.1v4.6c0,0,0,1,0,1c0,0.7,0.1,1.1,0.2,1.4c0.1,0.2,0.4,0.5,0.8,0.8l2.2-1c-0.4-0.1-0.6-0.2-0.7-0.4
		c-0.1-0.2-0.1-0.5-0.1-0.9v-7.7c0-1.5-0.5-2.5-1.4-3.1C70.7,11.3,69.7,11.1,68.5,11.1"/>
	<path class="st0" d="M78.1,11.1l-3.5,0.7c0.3,0.1,0.6,0.2,0.8,0.4c0.2,0.2,0.3,0.4,0.3,0.8v10.7c0,0.4-0.2,0.8-0.8,1.1h4
		c-0.3-0.2-0.5-0.3-0.6-0.5c-0.1-0.1-0.2-0.3-0.2-0.6v-9.5c0.8-1,1.8-1.5,2.9-1.5c2,0,3,1,3,3.1v7.9c0,0.4-0.2,0.8-0.8,1.1h4
		c-0.3-0.2-0.4-0.3-0.6-0.5c-0.1-0.2-0.2-0.4-0.2-0.6v-8.7c0-0.2,0-0.3-0.1-0.4c0.9-1.2,1.9-1.8,3.1-1.8c1.1,0,1.8,0.3,2.3,0.9
		c0.5,0.6,0.7,1.3,0.7,2.3v7.7c0,0.4-0.3,0.8-0.8,1.1h4c-0.3-0.2-0.4-0.3-0.6-0.5c-0.1-0.2-0.2-0.4-0.2-0.6V15
		c0-1.3-0.4-2.2-1.3-2.9c-0.9-0.7-1.9-1-3-1c-0.9,0-1.7,0.2-2.5,0.7c-0.8,0.5-1.5,1.1-2,1.8c-0.3-0.8-0.8-1.4-1.5-1.9
		c-0.8-0.4-1.6-0.7-2.4-0.7c-0.8,0-1.6,0.2-2.3,0.6c-0.7,0.4-1.3,0.9-2,1.4V11.1z"/>
	<path class="st0" d="M99.9,11.1l-3.4,0.8c0.6,0.2,0.9,0.6,0.9,1.2v17.2c0,0.5-0.2,0.9-0.8,1.1h4c-0.5-0.2-0.8-0.6-0.8-1.1V14.1
		c0.3-0.4,0.7-0.7,1.2-1s1.1-0.4,1.7-0.4c1,0,1.9,0.4,2.7,1.2c0.8,0.8,1.2,2.2,1.2,4.2c0,1.8-0.4,3.2-1.1,4.3
		c-0.8,1-1.8,1.5-3.1,1.5c-0.9,0-1.4-0.2-2.2-0.9l0.7,1.8c0.6,0.2,1.2,0.2,1.9,0.2c2,0,3.6-0.7,4.8-2.2s1.8-3.1,1.8-4.8
		c0-1.1-0.2-2.1-0.5-3c-0.3-0.9-0.8-1.6-1.3-2.2c-0.6-0.5-1.2-1-1.8-1.2c-0.6-0.3-1.3-0.4-2-0.4c-0.8,0-1.6,0.2-2.3,0.6
		c-0.7,0.4-1.3,0.8-1.6,1.2V11.1z"/>
	<path class="st0" d="M135.1,11.1l-3.5,0.6c0.6,0.2,1,0.6,1,1.2v10.7c0,0.5-0.2,0.8-0.7,1.1h4c-0.3-0.2-0.4-0.3-0.6-0.5
		c-0.1-0.2-0.2-0.4-0.2-0.6v-9.4c0.3-0.4,0.8-0.8,1.3-1.1c0.5-0.3,1.1-0.4,1.6-0.4c2,0,3.1,1.1,3.1,3.4v7.5c0,0.5-0.2,0.8-0.8,1.1
		h3.9c-0.3-0.2-0.5-0.4-0.6-0.5c-0.1-0.1-0.1-0.3-0.1-0.6v-8.5c0-0.8-0.2-1.6-0.6-2.2c-0.4-0.6-0.9-1-1.6-1.4
		c-0.7-0.3-1.4-0.5-2.1-0.5c-0.8,0-1.6,0.2-2.3,0.7c-0.8,0.4-1.4,0.9-1.8,1.4V11.1z"/>
	<path class="st0" d="M22.2,22.1c-0.6,1.1-1.5,1.7-2.7,1.8c-1.1,0.1-2.1-0.5-2.8-1.6c-0.7-1.1-1.1-2.5-1.1-4.1
		c-0.1-1.7,0.2-3.1,0.8-4.2c0.6-1.2,1.5-1.8,2.7-1.8c0.8,0,1.5,0.2,2.1,0.8c0.6,0.5,1,1.2,1.3,2.1c0.3,0.8,0.5,1.8,0.5,2.9
		C23.1,19.5,22.8,20.9,22.2,22.1 M24.9,14.7c-0.5-1.1-1.2-1.9-2.1-2.6c-1-0.7-2.1-1-3.5-1c-1.3,0-2.4,0.3-3.4,1s-1.7,1.5-2.2,2.6
		c-0.5,1.1-0.8,2.2-0.8,3.4c0,1.8,0.5,3.4,1.6,4.8c1.1,1.4,2.6,2.1,4.7,2.1c1.2,0,2.3-0.3,3.3-1c1-0.7,1.7-1.5,2.2-2.6
		c0.5-1.1,0.8-2.2,0.8-3.3C25.6,16.8,25.4,15.7,24.9,14.7"/>
	<path class="st0" d="M127.6,22.1c-0.6,1.1-1.5,1.7-2.7,1.8c-1.1,0.1-2.1-0.5-2.8-1.6c-0.7-1.1-1.1-2.5-1.1-4.1
		c-0.1-1.7,0.2-3.1,0.8-4.2c0.6-1.2,1.5-1.8,2.7-1.8c0.8,0,1.5,0.2,2.1,0.8c0.6,0.5,1,1.2,1.3,2.1c0.3,0.8,0.5,1.8,0.5,2.9
		C128.5,19.5,128.2,20.9,127.6,22.1 M130.4,14.7c-0.5-1.1-1.2-1.9-2.1-2.6c-1-0.7-2.1-1-3.5-1c-1.3,0-2.4,0.3-3.4,1
		c-1,0.7-1.7,1.5-2.2,2.6c-0.5,1.1-0.8,2.2-0.8,3.4c0,1.8,0.5,3.4,1.6,4.8c1.1,1.4,2.6,2.1,4.7,2.1c1.2,0,2.3-0.3,3.3-1
		c1-0.7,1.7-1.5,2.3-2.6c0.5-1.1,0.8-2.2,0.8-3.3C131.1,16.8,130.8,15.7,130.4,14.7"/>
</g>
</svg>
